<?xml version="1.0" encoding="UTF-8"?>
<svg
        xmlns="http://www.w3.org/2000/svg"
        viewBox="0 0 520 180"
        data-cb-weather-background-version="1"
>
    <defs>

        <!-- ── Gradients ── -->
        <linearGradient id="sky-fallback" x1="0" y1="0" x2="0" y2="1">
            <stop offset="0%"   stop-color="var(--cb-weather-background-sky-top,    #0a1628)"/>
            <stop offset="55%"  stop-color="var(--cb-weather-background-sky-middle,  #1a3a6e)"/>
            <stop offset="100%" stop-color="var(--cb-weather-background-sky-bottom,  #2d5a9e)"/>
        </linearGradient>

        <radialGradient id="sun-glow" cx="50%" cy="50%" r="50%">
            <stop offset="0%"   stop-color="#fffde7" stop-opacity="1"/>
            <stop offset="35%"  stop-color="#ffd54f" stop-opacity="0.85"/>
            <stop offset="100%" stop-color="#ff9f43" stop-opacity="0"/>
        </radialGradient>

        <radialGradient id="moon-glow" cx="50%" cy="50%" r="50%">
            <stop offset="0%"   stop-color="#e8f0ff" stop-opacity="0.9"/>
            <stop offset="40%"  stop-color="#c8d8f8" stop-opacity="0.5"/>
            <stop offset="100%" stop-color="#8899cc"  stop-opacity="0"/>
        </radialGradient>

        <linearGradient id="ground-grad" x1="0" y1="0" x2="0" y2="1">
            <stop offset="0%"   stop-color="#1a2535"/>
            <stop offset="100%" stop-color="#0e1720"/>
        </linearGradient>

        <linearGradient id="snow-ground" x1="0" y1="0" x2="0" y2="1">
            <stop offset="0%"   stop-color="#dde8f8"/>
            <stop offset="100%" stop-color="#c8d8f0"/>
        </linearGradient>

        <!-- ── Filters ── -->
        <filter id="blur-soft" x="-50%"  y="-50%"  width="200%" height="200%"><feGaussianBlur stdDeviation="4"/></filter>
        <filter id="blur-md"   x="-100%" y="-100%" width="300%" height="300%"><feGaussianBlur stdDeviation="30"/></filter>
        <filter id="blur-glow" x="-80%"  y="-80%"  width="260%" height="260%"><feGaussianBlur stdDeviation="6"/></filter>

        <!-- ── Clip path: keep animated elements inside the viewBox ── -->
        <clipPath id="scene-clip">
            <rect x="0" y="0" width="520" height="180"/>
        </clipPath>

        <!-- ── CSS Style & Animations ── -->
        <style>
            svg:not([data-cb-weather-background-runtime-active="true"])
            [data-cb-weather-background-weather]:not([data-cb-weather-background-weather~="sunny"]) {
            display: none;
            }

            /* ── CLOUDS ── */
            .cloud-layer {
            animation: cloud-drift var(--cb-weather-background-cloud-speed, 52s) ease-in-out infinite alternate;
            animation-play-state: var(--cb-weather-background-animation-play-state, running);
            opacity: var(--cb-weather-background-cloud-opacity, 1);
            }
            .cloud-bob {
            animation: cloud-bob var(--cb-weather-background-cloud-bob-speed, 8s) ease-in-out infinite alternate;
            animation-play-state: var(--cb-weather-background-animation-play-state, running);
            }
            .cloud-layer-b {
            animation: cloud-drift-b var(--cb-weather-background-cloud-speed, 52s) ease-in-out infinite alternate;
            animation-play-state: var(--cb-weather-background-animation-play-state, running);
            opacity: var(--cb-weather-background-cloud-opacity, 1);
            }

            /* ── RAIN ── */
            .rain-a {
            animation: rain-fall var(--cb-weather-background-rain-speed, 0.9s) linear infinite;
            animation-play-state: var(--cb-weather-background-animation-play-state, running);
            opacity: var(--cb-weather-background-rain-opacity, 0.55);
            }
            .rain-b {
            animation: rain-fall var(--cb-weather-background-rain-speed, 0.9s) linear infinite;
            animation-delay: -0.45s;
            animation-play-state: var(--cb-weather-background-animation-play-state, running);
            opacity: var(--cb-weather-background-rain-opacity, 0.55);
            }

            /* ── POURING ── */
            .pour-a {
            animation: rain-fall var(--cb-weather-background-pouring-speed, 0.55s) linear infinite;
            animation-play-state: var(--cb-weather-background-animation-play-state, running);
            opacity: var(--cb-weather-background-pouring-opacity, 0.70);
            }
            .pour-b {
            animation: rain-fall var(--cb-weather-background-pouring-speed, 0.55s) linear infinite;
            animation-delay: -0.28s;
            animation-play-state: var(--cb-weather-background-animation-play-state, running);
            opacity: var(--cb-weather-background-pouring-opacity, 0.70);
            }
            .pour-c {
            animation: rain-fall var(--cb-weather-background-pouring-speed, 0.55s) linear infinite;
            animation-delay: -0.14s;
            animation-play-state: var(--cb-weather-background-animation-play-state, running);
            opacity: var(--cb-weather-background-pouring-opacity, 0.70);
            }

            /* ── SNOW ── */
            .snow-a {
            animation: snow-fall var(--cb-weather-background-snow-speed, 6s) linear infinite;
            animation-play-state: var(--cb-weather-background-animation-play-state, running);
            opacity: var(--cb-weather-background-snow-opacity, 0.88);
            }
            .snow-b {
            animation: snow-fall var(--cb-weather-background-snow-speed, 6s) linear infinite;
            animation-delay: -3s;
            animation-play-state: var(--cb-weather-background-animation-play-state, running);
            opacity: var(--cb-weather-background-snow-opacity, 0.88);
            }
            .snow-c {
            animation: snow-fall var(--cb-weather-background-snow-speed, 6s) linear infinite;
            animation-delay: -1.5s;
            animation-play-state: var(--cb-weather-background-animation-play-state, running);
            opacity: var(--cb-weather-background-snow-opacity, 0.88);
            }

            /* ── HAIL ── */
            .hail-a {
            animation: hail-fall var(--cb-weather-background-hail-speed, 0.45s) ease-in infinite;
            animation-play-state: var(--cb-weather-background-animation-play-state, running);
            opacity: var(--cb-weather-background-hail-opacity, 0.80);
            }
            .hail-b {
            animation: hail-fall var(--cb-weather-background-hail-speed, 0.45s) ease-in infinite;
            animation-delay: -0.22s;
            animation-play-state: var(--cb-weather-background-animation-play-state, running);
            opacity: var(--cb-weather-background-hail-opacity, 0.80);
            }

            /* ── LIGHTNING bolt propagation ── */
            .lightning-bolt {
            stroke-dasharray: 200;
            stroke-dashoffset: 200;
            animation: bolt-draw var(--cb-weather-background-lightning-speed, 2.8s) ease-in infinite;
            animation-play-state: var(--cb-weather-background-animation-play-state, running);
            }
            .lightning-bolt-2 {
            stroke-dasharray: 120;
            stroke-dashoffset: 120;
            animation: bolt-draw var(--cb-weather-background-lightning-speed, 2.8s) ease-in infinite;
            animation-delay: -1.4s;
            animation-play-state: var(--cb-weather-background-animation-play-state, running);
            }
            /* ── LIGHTNING scene flash ── */
            .lightning-flash {
            animation: flash var(--cb-weather-background-lightning-speed, 2.8s) ease-in infinite;
            animation-play-state: var(--cb-weather-background-animation-play-state, running);
            opacity: 0;
            }
            .lightning-flash-2 {
            animation: flash var(--cb-weather-background-lightning-speed, 2.8s) ease-in infinite;
            animation-delay: -1.4s;
            animation-play-state: var(--cb-weather-background-animation-play-state, running);
            opacity: 0;
            }

            /* ── FOG ── */
            .fog-a {
            animation: fog-drift var(--cb-weather-background-fog-speed, 18s) linear infinite;
            animation-play-state: var(--cb-weather-background-animation-play-state, running);
            }
            .fog-b {
            animation: fog-drift var(--cb-weather-background-fog-speed, 18s) linear infinite;
            animation-delay: -9s;
            animation-play-state: var(--cb-weather-background-animation-play-state, running);
            }

            /* ── WIND strokes ── */
            .wind-stroke {
            stroke-dasharray: 60 40;
            animation: wind-flow var(--cb-weather-background-wind-speed, 2.8s) linear infinite;
            animation-play-state: var(--cb-weather-background-animation-play-state, running);
            opacity: var(--cb-weather-background-wind-opacity, 0.50);
            }
            .wind-stroke-b {
            stroke-dasharray: 44 56;
            animation: wind-flow var(--cb-weather-background-wind-speed, 2.8s) linear infinite;
            animation-delay: -1.4s;
            animation-play-state: var(--cb-weather-background-animation-play-state, running);
            opacity: var(--cb-weather-background-wind-opacity, 0.50);
            }
            .wind-stroke-fast {
            stroke-dasharray: 50 50;
            animation: wind-flow calc(var(--cb-weather-background-wind-speed, 2.8s) * 0.65) linear infinite;
            animation-play-state: var(--cb-weather-background-animation-play-state, running);
            opacity: var(--cb-weather-background-wind-opacity, 0.60);
            }

            /* ── STARS twinkle ── */
            .star-twinkle {
            animation: star-twinkle var(--cb-weather-background-star-speed, 4s) ease-in-out infinite alternate;
            animation-play-state: var(--cb-weather-background-animation-play-state, running);
            opacity: var(--cb-weather-background-star-opacity, 0.85);
            }
            .star-twinkle-b {
            animation: star-twinkle var(--cb-weather-background-star-speed, 4s) ease-in-out infinite alternate;
            animation-delay: -2s;
            animation-play-state: var(--cb-weather-background-animation-play-state, running);
            opacity: var(--cb-weather-background-star-opacity, 0.85);
            }

            /* ── SUN pulse ── */
            .sun-pulse {
            animation: sun-pulse var(--cb-weather-background-sun-pulse-speed, 4s) ease-in-out infinite alternate;
            animation-play-state: var(--cb-weather-background-animation-play-state, running);
            }

            /* ── EXCEPTIONAL warning wave ── */
            .exc-wave {
            stroke-dasharray: 80 40;
            animation: wind-flow calc(var(--cb-weather-background-exceptional-speed, 3s) * 0.5) linear infinite;
            animation-play-state: var(--cb-weather-background-animation-play-state, running);
            opacity: var(--cb-weather-background-exceptional-opacity, 0.55);
            }

            /* ── KEYFRAMES ── */
            @keyframes cloud-drift {
            from { transform: translateX(-14px); }
            to   { transform: translateX(20px);  }
            }
            @keyframes cloud-drift-b {
            from { transform: translateX(10px);  }
            to   { transform: translateX(-18px); }
            }
            @keyframes cloud-bob {
            from { transform: translateY(0px);  }
            to   { transform: translateY(3px);  }
            }
            @keyframes rain-fall {
            from { transform: translate(0,    -50px); }
            to   { transform: translate(-18px, 50px); }
            }
            @keyframes snow-fall {
            from { transform: translate(0,    -50px); }
            to   { transform: translate(10px,  50px); }
            }
            @keyframes hail-fall {
            from { transform: translate(0,    -45px); }
            to   { transform: translate(-8px,  45px); }
            }
            @keyframes bolt-draw {
            0%   { stroke-dashoffset: 200; opacity: 0;   }
            5%   { stroke-dashoffset: 0;   opacity: 1;   }
            18%  { stroke-dashoffset: 0;   opacity: 0.9; }
            22%  { stroke-dashoffset: 0;   opacity: 0;   }
            100% { stroke-dashoffset: 0;   opacity: 0;   }
            }
            @keyframes flash {
            0%   { opacity: 0;    }
            5%   { opacity: 0.12; }
            10%  { opacity: 0;    }
            14%  { opacity: 0.08; }
            18%  { opacity: 0;    }
            100% { opacity: 0;    }
            }
            @keyframes fog-drift {
            from { transform: translateX(-60px); }
            to   { transform: translateX(60px);  }
            }
            @keyframes wind-flow {
            from { stroke-dashoffset:  100; }
            to   { stroke-dashoffset: -100; }
            }
            @keyframes star-twinkle {
            from { opacity: 0.3; }
            to   { opacity: 1.0; }
            }
            @keyframes sun-pulse {
            from { transform: scale(0.96); }
            to   { transform: scale(1.04); }
            }

            /* ── Reduced motion ── */
            @media (prefers-reduced-motion: reduce) {
            * {
            animation-duration: 1ms !important;
            animation-iteration-count: 1 !important;
            transition-duration: 1ms !important;
            }
            }
        </style>

    </defs>

    <!-- ══════════════════════════════════════════
         SKY — runtime-driven by the block
         ══════════════════════════════════════════ -->
    <rect
            data-cb-weather-background-role="sky"
            x="0" y="0" width="520" height="180"
            fill="url(#sky-fallback)"
    />

    <!-- ══════════════════════════════════════════
         HORIZON GLOW — dawn / dusk / twilight
         ══════════════════════════════════════════ -->
    <g
            data-cb-weather-background-role="dawn-dusk"
            data-cb-weather-background-phase="dawn dusk twilight"
            opacity="0"
    >
        <ellipse cx="260" cy="142" rx="320" ry="68" fill="#e06820" filter="url(#blur-md)" opacity="0.35"/>
    </g>

    <!-- ══════════════════════════════════════════
         STARS — clear-night / phase:night
         ══════════════════════════════════════════ -->
    <g
            data-cb-weather-background-role="stars"
            data-cb-weather-background-weather="clear-night"
            data-cb-weather-background-phase="night"
            clip-path="url(#scene-clip)"
    >
        <g class="star-twinkle">
            <circle cx="22"  cy="8"  r="0.8" fill="#ffffff" opacity="0.9"/>
            <circle cx="88"  cy="7"  r="1.1" fill="#ffffff" opacity="0.8"/>
            <circle cx="148" cy="10" r="0.9" fill="#ffffff" opacity="0.9"/>
            <circle cx="230" cy="6"  r="1.0" fill="#ffffff" opacity="0.7"/>
            <circle cx="290" cy="9"  r="0.7" fill="#ffffff" opacity="0.9"/>
            <circle cx="355" cy="7"  r="0.9" fill="#ffffff" opacity="0.8"/>
            <circle cx="418" cy="11" r="1.1" fill="#ffffff" opacity="0.9"/>
            <circle cx="478" cy="16" r="0.9" fill="#ffffff" opacity="0.7"/>
            <circle cx="138" cy="35" r="0.7" fill="#ffffff" opacity="0.6"/>
            <circle cx="340" cy="28" r="0.7" fill="#ffffff" opacity="0.5"/>
        </g>
        <g class="star-twinkle-b">
            <circle cx="55"  cy="14" r="0.6" fill="#ffffff" opacity="0.7"/>
            <circle cx="115" cy="20" r="0.7" fill="#ffffff" opacity="0.6"/>
            <circle cx="175" cy="5"  r="0.6" fill="#ffffff" opacity="0.5"/>
            <circle cx="198" cy="22" r="0.8" fill="#ffffff" opacity="0.8"/>
            <circle cx="262" cy="15" r="0.8" fill="#ffffff" opacity="0.6"/>
            <circle cx="320" cy="20" r="1.0" fill="#ffffff" opacity="0.7"/>
            <circle cx="388" cy="18" r="0.7" fill="#ffffff" opacity="0.5"/>
            <circle cx="448" cy="6"  r="0.8" fill="#ffffff" opacity="0.6"/>
            <circle cx="502" cy="9"  r="0.6" fill="#ffffff" opacity="0.8"/>
            <circle cx="42"  cy="30" r="0.6" fill="#ffffff" opacity="0.5"/>
            <circle cx="210" cy="32" r="0.8" fill="#ffffff" opacity="0.6"/>
            <circle cx="430" cy="33" r="0.9" fill="#ffffff" opacity="0.4"/>
            <circle cx="495" cy="28" r="0.6" fill="#ffffff" opacity="0.5"/>
        </g>
    </g>

    <!-- ══════════════════════════════════════════
         SUN ARC
         Arc: left horizon (54,164) → apex (~260,14) → right horizon (466,164)
         ══════════════════════════════════════════ -->
    <path
            data-cb-weather-background-role="sun-arc"
            d="M 54 164 C 140 0 380 0 466 164"
            fill="none"
            stroke="none"
    />

    <!-- ══════════════════════════════════════════
         SUN — drawn around (0,0)
         ══════════════════════════════════════════ -->
    <g
            data-cb-weather-background-role="sun"
            data-cb-weather-background-weather="sunny partlycloudy cloudy fog windy windy-variant exceptional"
    >
        <g class="sun-pulse">
            <circle cx="0" cy="0" r="58" fill="url(#sun-glow)" filter="url(#blur-soft)" opacity="0.48"/>
            <circle cx="0" cy="0" r="30" fill="#ffd54f" opacity="0.16"/>
            <circle cx="0" cy="0" r="17" fill="#fffde7" opacity="0.97"/>
            <g opacity="0.30" stroke="#ffe082" stroke-linecap="round">
                <line x1="0"   y1="-24" x2="0"   y2="-32" stroke-width="1.5"/>
                <line x1="0"   y1=" 24" x2="0"   y2=" 32" stroke-width="1.5"/>
                <line x1="-24" y1="0"   x2="-32" y2="0"   stroke-width="1.5"/>
                <line x1=" 24" y1="0"   x2=" 32" y2="0"   stroke-width="1.5"/>
                <line x1="-17" y1="-17" x2="-22" y2="-22" stroke-width="1.2"/>
                <line x1=" 17" y1="-17" x2=" 22" y2="-22" stroke-width="1.2"/>
                <line x1=" 17" y1=" 17" x2=" 22" y2=" 22" stroke-width="1.2"/>
                <line x1="-17" y1=" 17" x2="-22" y2=" 22" stroke-width="1.2"/>
            </g>
        </g>
    </g>

    <!-- ══════════════════════════════════════════
         MOON — static at arc midpoint for clear-night
         ══════════════════════════════════════════ -->
    <g
            data-cb-weather-background-weather="clear-night"
            data-cb-weather-background-phase="night"
    >
        <circle cx="260" cy="22" r="40" fill="url(#moon-glow)" filter="url(#blur-soft)" opacity="0.42"/>
        <circle cx="260" cy="22" r="13" fill="#dde8ff" opacity="0.95"/>
        <circle cx="265" cy="19" r="10" fill="#0d1a30" opacity="0.46"/>
        <circle cx="254" cy="17" r="2.2" fill="#b8c8e8" opacity="0.32"/>
        <circle cx="261" cy="26" r="1.5" fill="#b8c8e8" opacity="0.25"/>
        <circle cx="267" cy="21" r="1.0" fill="#c8d8f0" opacity="0.20"/>
    </g>

    <!-- ══════════════════════════════════════════
         WEATHER OVERLAYS
         ══════════════════════════════════════════ -->

    <!-- ── PARTLY CLOUDY ── -->
    <g data-cb-weather-background-weather="partlycloudy" clip-path="url(#scene-clip)">
        <g class="cloud-layer">
            <g class="cloud-bob">
                <ellipse cx="105" cy="30" rx="72"  ry="20" fill="#2a4870" opacity="0.55"/>
                <ellipse cx="138" cy="20" rx="55"  ry="16" fill="#304f80" opacity="0.48"/>
                <ellipse cx="80"  cy="34" rx="40"  ry="14" fill="#243d6a" opacity="0.40"/>
            </g>
        </g>
        <g class="cloud-layer-b">
            <g class="cloud-bob">
                <ellipse cx="400" cy="26" rx="80"  ry="19" fill="#2a4870" opacity="0.50"/>
                <ellipse cx="435" cy="16" rx="58"  ry="15" fill="#304f80" opacity="0.42"/>
                <ellipse cx="370" cy="31" rx="42"  ry="13" fill="#243d6a" opacity="0.38"/>
            </g>
        </g>
    </g>

    <!-- ── CLOUDY ── -->
    <g data-cb-weather-background-weather="cloudy rainy" clip-path="url(#scene-clip)">
        <rect x="0" y="0" width="520" height="135" fill="#1a2840" opacity="0.55"/>
        <g class="cloud-layer">
            <g class="cloud-bob">
                <ellipse cx="90"  cy="24" rx="110" ry="26" fill="#283850" opacity="0.75"/>
                <ellipse cx="80"  cy="14" rx="85"  ry="20" fill="#2e4060" opacity="0.65"/>
                <ellipse cx="150" cy="32" rx="95"  ry="22" fill="#243250" opacity="0.60"/>
            </g>
        </g>
        <g class="cloud-layer-b">
            <g class="cloud-bob">
                <ellipse cx="270" cy="20" rx="130" ry="24" fill="#283858" opacity="0.72"/>
                <ellipse cx="260" cy="10" rx="100" ry="18" fill="#304268" opacity="0.60"/>
                <ellipse cx="440" cy="26" rx="110" ry="25" fill="#283850" opacity="0.70"/>
                <ellipse cx="460" cy="15" rx="80"  ry="19" fill="#2e4060" opacity="0.62"/>
            </g>
        </g>
    </g>

    <!-- ── RAINY ── -->
    <g data-cb-weather-background-weather="rainy" clip-path="url(#scene-clip)">
        <!-- rain pass A -->
        <g class="rain-a" stroke="#6890b8" stroke-width="0.8" stroke-linecap="round">
            <line x1="20"  y1="35" x2="8"   y2="85"/> <line x1="50"  y1="28" x2="38"  y2="78"/>
            <line x1="80"  y1="32" x2="68"  y2="82"/> <line x1="110" y1="26" x2="98"  y2="76"/>
            <line x1="140" y1="31" x2="128" y2="81"/> <line x1="170" y1="27" x2="158" y2="77"/>
            <line x1="200" y1="33" x2="188" y2="83"/> <line x1="230" y1="29" x2="218" y2="79"/>
            <line x1="260" y1="34" x2="248" y2="84"/> <line x1="290" y1="28" x2="278" y2="78"/>
            <line x1="320" y1="32" x2="308" y2="82"/> <line x1="350" y1="26" x2="338" y2="76"/>
            <line x1="380" y1="31" x2="368" y2="81"/> <line x1="410" y1="27" x2="398" y2="77"/>
            <line x1="440" y1="33" x2="428" y2="83"/> <line x1="470" y1="29" x2="458" y2="79"/>
            <line x1="500" y1="34" x2="488" y2="84"/>
        </g>
        <!-- rain pass B (offset) -->
        <g class="rain-b" stroke="#6890b8" stroke-width="0.8" stroke-linecap="round">
            <line x1="35"  y1="35" x2="23"  y2="85"/> <line x1="65"  y1="28" x2="53"  y2="78"/>
            <line x1="95"  y1="32" x2="83"  y2="82"/> <line x1="125" y1="26" x2="113" y2="76"/>
            <line x1="155" y1="31" x2="143" y2="81"/> <line x1="185" y1="27" x2="173" y2="77"/>
            <line x1="215" y1="33" x2="203" y2="83"/> <line x1="245" y1="29" x2="233" y2="79"/>
            <line x1="275" y1="34" x2="263" y2="84"/> <line x1="305" y1="28" x2="293" y2="78"/>
            <line x1="335" y1="32" x2="323" y2="82"/> <line x1="365" y1="26" x2="353" y2="76"/>
            <line x1="395" y1="31" x2="383" y2="81"/> <line x1="425" y1="27" x2="413" y2="77"/>
            <line x1="455" y1="33" x2="443" y2="83"/> <line x1="485" y1="29" x2="473" y2="79"/>
            <line x1="515" y1="34" x2="503" y2="84"/>
        </g>
    </g>

    <!-- ── POURING ── -->
    <g data-cb-weather-background-weather="pouring" clip-path="url(#scene-clip)">
        <rect x="0" y="0" width="520" height="135" fill="#0e1520" opacity="0.65"/>
        <g class="cloud-layer">
            <ellipse cx="100" cy="18" rx="130" ry="26" fill="#18222e" opacity="0.88"/>
            <ellipse cx="270" cy="14" rx="150" ry="25" fill="#141e2c" opacity="0.85"/>
            <ellipse cx="440" cy="20" rx="120" ry="24" fill="#18222e" opacity="0.82"/>
        </g>
        <g class="pour-a" stroke="#5580a8" stroke-width="1.0" stroke-linecap="round">
            <line x1="10"  y1="32" x2="-2"  y2="84"/> <line x1="30"  y1="27" x2="18"  y2="79"/>
            <line x1="50"  y1="33" x2="38"  y2="85"/> <line x1="70"  y1="27" x2="58"  y2="79"/>
            <line x1="90"  y1="32" x2="78"  y2="84"/> <line x1="110" y1="28" x2="98"  y2="80"/>
            <line x1="130" y1="34" x2="118" y2="86"/> <line x1="150" y1="28" x2="138" y2="80"/>
            <line x1="170" y1="32" x2="158" y2="84"/> <line x1="190" y1="27" x2="178" y2="79"/>
            <line x1="210" y1="33" x2="198" y2="85"/> <line x1="230" y1="28" x2="218" y2="80"/>
            <line x1="250" y1="34" x2="238" y2="86"/> <line x1="270" y1="28" x2="258" y2="80"/>
            <line x1="290" y1="32" x2="278" y2="84"/> <line x1="310" y1="27" x2="298" y2="79"/>
            <line x1="330" y1="33" x2="318" y2="85"/> <line x1="350" y1="28" x2="338" y2="80"/>
            <line x1="370" y1="32" x2="358" y2="84"/> <line x1="390" y1="27" x2="378" y2="79"/>
            <line x1="410" y1="33" x2="398" y2="85"/> <line x1="430" y1="28" x2="418" y2="80"/>
            <line x1="450" y1="32" x2="438" y2="84"/> <line x1="470" y1="27" x2="458" y2="79"/>
            <line x1="490" y1="33" x2="478" y2="85"/> <line x1="510" y1="28" x2="498" y2="80"/>
        </g>
        <g class="pour-b" stroke="#5580a8" stroke-width="1.0" stroke-linecap="round">
            <line x1="20"  y1="32" x2="8"   y2="84"/> <line x1="60"  y1="27" x2="48"  y2="79"/>
            <line x1="100" y1="33" x2="88"  y2="85"/> <line x1="140" y1="27" x2="128" y2="79"/>
            <line x1="180" y1="32" x2="168" y2="84"/> <line x1="220" y1="28" x2="208" y2="80"/>
            <line x1="260" y1="33" x2="248" y2="85"/> <line x1="300" y1="28" x2="288" y2="80"/>
            <line x1="340" y1="32" x2="328" y2="84"/> <line x1="380" y1="27" x2="368" y2="79"/>
            <line x1="420" y1="33" x2="408" y2="85"/> <line x1="460" y1="28" x2="448" y2="80"/>
            <line x1="500" y1="32" x2="488" y2="84"/>
        </g>
        <g class="pour-c" stroke="#5580a8" stroke-width="1.0" stroke-linecap="round">
            <line x1="40"  y1="32" x2="28"  y2="84"/> <line x1="80"  y1="27" x2="68"  y2="79"/>
            <line x1="120" y1="33" x2="108" y2="85"/> <line x1="160" y1="27" x2="148" y2="79"/>
            <line x1="200" y1="32" x2="188" y2="84"/> <line x1="240" y1="28" x2="228" y2="80"/>
            <line x1="280" y1="33" x2="268" y2="85"/> <line x1="320" y1="28" x2="308" y2="80"/>
            <line x1="360" y1="32" x2="348" y2="84"/> <line x1="400" y1="27" x2="388" y2="79"/>
            <line x1="440" y1="33" x2="428" y2="85"/> <line x1="480" y1="28" x2="468" y2="80"/>
            <line x1="520" y1="32" x2="508" y2="84"/>
        </g>
        <rect x="0" y="135" width="520" height="20" fill="#3a5a80" opacity="0.22"/>
    </g>

    <!-- ── LIGHTNING & LIGHTNING-RAINY ── -->
    <g data-cb-weather-background-weather="lightning lightning-rainy" clip-path="url(#scene-clip)">
        <rect x="0" y="0" width="520" height="180" fill="#352f2f" opacity="0.68"/>
        <g class="cloud-layer">
            <ellipse cx="90"  cy="18" rx="130" ry="28" fill="#595555" opacity="0.90"/>
            <ellipse cx="270" cy="14" rx="155" ry="26" fill="#0d1218" opacity="0.88"/>
            <ellipse cx="440" cy="20" rx="125" ry="26" fill="#7f7f7f" opacity="0.86"/>
        </g>
        <!-- flash overlay 1 -->
        <rect class="lightning-flash"   x="0" y="0" width="520" height="180" fill="#fffde7"/>
        <!-- flash overlay 2 (offset) -->
        <rect class="lightning-flash-2" x="0" y="0" width="520" height="180" fill="#fffde7"/>
        <!-- bolt 1 -->
        <polyline class="lightning-bolt"
                  points="275,10 255,55 272,75 248,200"
                  fill="none" stroke="#fff8a0" stroke-width="8"
                  stroke-linejoin="round" stroke-linecap="round" filter="url(#blur-glow)"/>
        <polyline class="lightning-bolt"
                  points="275,10 255,55 272,75 248,200"
                  fill="none" stroke="#ffd700" stroke-width="2.8"
                  stroke-linejoin="round" stroke-linecap="round"/>
        <!-- bolt 2 -->
        <polyline class="lightning-bolt-2"
                  points="388,18 374,52 385,52 368,350"
                  fill="none" stroke="#fff8a0" stroke-width="8"
                  stroke-linejoin="round" stroke-linecap="round" filter="url(#blur-glow)"/>
        <polyline class="lightning-bolt-2"
                  points="388,18 374,52 385,52 368,350"
                  fill="none" stroke="#ffd700" stroke-width="1.8"
                  stroke-linejoin="round" stroke-linecap="round"/>
    </g>

    <!-- ── SNOWY & SHOWY-RAINY ── -->
    <g data-cb-weather-background-weather="snowy snowy-rainy" clip-path="url(#scene-clip)">
        <rect x="0" y="0" width="520" height="135" fill="#2a3550" opacity="0.50"/>
        <g class="cloud-layer">
            <ellipse cx="130" cy="20" rx="140" ry="24" fill="#3a4a6a" opacity="0.60"/>
            <ellipse cx="290" cy="15" rx="155" ry="22" fill="#364468" opacity="0.58"/>
            <ellipse cx="440" cy="22" rx="120" ry="21" fill="#3a4a6a" opacity="0.55"/>
        </g>
        <!-- snow pass A -->
        <g class="snow-a" fill="#e8f0ff">
            <circle cx="18"  cy="38" r="2.2"/> <circle cx="78"  cy="42" r="2.0"/> <circle cx="140" cy="44" r="2.4"/>
            <circle cx="200" cy="40" r="1.5"/> <circle cx="262" cy="43" r="1.7"/> <circle cx="322" cy="41" r="1.5"/>
            <circle cx="382" cy="44" r="1.6"/> <circle cx="442" cy="40" r="1.8"/> <circle cx="500" cy="42" r="1.4"/>
            <circle cx="64"  cy="70" r="2.3"/> <circle cx="128" cy="68" r="2.0"/> <circle cx="188" cy="72" r="2.4"/>
            <circle cx="248" cy="66" r="2.1"/> <circle cx="308" cy="69" r="2.2"/> <circle cx="368" cy="65" r="2.0"/>
            <circle cx="428" cy="60" r="2.3"/> <circle cx="488" cy="57" r="2.0"/>
            <circle cx="52"  cy="96" r="2.0"/> <circle cx="122" cy="94" r="2.2"/> <circle cx="185" cy="98" r="2.0"/>
            <circle cx="245" cy="93" r="2.4"/> <circle cx="305" cy="97" r="2.1"/> <circle cx="365" cy="95" r="2.3"/>
            <circle cx="425" cy="96" r="2.0"/> <circle cx="485" cy="94" r="2.2"/>
        </g>
        <!-- snow pass B -->
        <g class="snow-b" fill="#e8f0ff">
            <circle cx="48"  cy="32" r="1.6"/> <circle cx="110" cy="35" r="1.4"/> <circle cx="172" cy="31" r="1.8"/>
            <circle cx="232" cy="36" r="2.1"/> <circle cx="292" cy="33" r="2.3"/> <circle cx="352" cy="36" r="2.0"/>
            <circle cx="412" cy="32" r="2.2"/> <circle cx="472" cy="35" r="2.0"/>
            <circle cx="30"  cy="62" r="1.8"/> <circle cx="96"  cy="58" r="1.5"/> <circle cx="158" cy="60" r="1.6"/>
            <circle cx="218" cy="57" r="1.7"/> <circle cx="278" cy="61" r="1.4"/> <circle cx="338" cy="58" r="1.8"/>
            <circle cx="398" cy="72" r="1.5"/> <circle cx="458" cy="68" r="1.6"/>
            <circle cx="14"  cy="90" r="1.6"/> <circle cx="88"  cy="88" r="1.4"/> <circle cx="155" cy="90" r="1.7"/>
            <circle cx="215" cy="87" r="1.5"/> <circle cx="275" cy="91" r="1.8"/> <circle cx="335" cy="88" r="1.4"/>
            <circle cx="395" cy="90" r="1.6"/> <circle cx="455" cy="89" r="1.7"/> <circle cx="510" cy="90" r="1.5"/>
        </g>
        <!-- snow pass C -->
        <g class="snow-c" fill="#e8f0ff">
            <circle cx="33"  cy="36" r="1.9"/> <circle cx="93"  cy="40" r="1.6"/> <circle cx="155" cy="37" r="2.0"/>
            <circle cx="217" cy="43" r="1.7"/> <circle cx="277" cy="38" r="2.1"/> <circle cx="337" cy="42" r="1.6"/>
            <circle cx="397" cy="36" r="1.9"/> <circle cx="457" cy="41" r="1.7"/>
            <circle cx="47"  cy="64" r="2.0"/> <circle cx="112" cy="67" r="1.8"/> <circle cx="173" cy="63" r="2.2"/>
            <circle cx="233" cy="69" r="1.6"/> <circle cx="293" cy="65" r="2.0"/> <circle cx="353" cy="68" r="1.8"/>
            <circle cx="413" cy="62" r="2.1"/> <circle cx="473" cy="66" r="1.6"/>
        </g>
        <rect x="0" y="130" width="520" height="50" fill="url(#snow-ground)" opacity="0.35"/>
    </g>

    <!-- ── HAIL ── -->
    <g data-cb-weather-background-weather="hail" clip-path="url(#scene-clip)">
        <rect x="0" y="0" width="520" height="135" fill="#141e2c" opacity="0.65"/>
        <g class="cloud-layer">
            <ellipse cx="100" cy="18" rx="130" ry="26" fill="#18262e" opacity="0.88"/>
            <ellipse cx="270" cy="14" rx="150" ry="25" fill="#14202c" opacity="0.85"/>
            <ellipse cx="440" cy="20" rx="120" ry="24" fill="#18262e" opacity="0.82"/>
        </g>
        <g class="hail-a">
            <g stroke="#a0b8cc" stroke-width="1.4" stroke-linecap="round">
                <line x1="40"  y1="38" x2="36"  y2="52"/> <line x1="120" y1="40" x2="116" y2="54"/>
                <line x1="200" y1="41" x2="196" y2="55"/> <line x1="280" y1="40" x2="276" y2="54"/>
                <line x1="360" y1="41" x2="356" y2="55"/> <line x1="440" y1="40" x2="436" y2="54"/>
            </g>
            <g fill="#c8d8e8">
                <circle cx="38"  cy="53" r="2.8"/> <circle cx="118" cy="55" r="3.0"/>
                <circle cx="198" cy="56" r="2.8"/> <circle cx="278" cy="55" r="3.0"/>
                <circle cx="358" cy="56" r="2.8"/> <circle cx="438" cy="55" r="3.0"/>
            </g>
        </g>
        <g class="hail-b">
            <g stroke="#a0b8cc" stroke-width="1.4" stroke-linecap="round">
                <line x1="80"  y1="33" x2="76"  y2="47"/> <line x1="160" y1="35" x2="156" y2="49"/>
                <line x1="240" y1="36" x2="236" y2="50"/> <line x1="320" y1="35" x2="316" y2="49"/>
                <line x1="400" y1="36" x2="396" y2="50"/> <line x1="480" y1="35" x2="476" y2="49"/>
                <line x1="60"  y1="62" x2="56"  y2="78"/> <line x1="140" y1="60" x2="136" y2="76"/>
                <line x1="220" y1="64" x2="216" y2="80"/> <line x1="300" y1="61" x2="296" y2="77"/>
                <line x1="380" y1="64" x2="376" y2="80"/> <line x1="460" y1="60" x2="456" y2="76"/>
            </g>
            <g fill="#c8d8e8">
                <circle cx="78"  cy="48" r="2.4"/> <circle cx="158" cy="50" r="2.6"/>
                <circle cx="238" cy="51" r="2.4"/> <circle cx="318" cy="50" r="2.6"/>
                <circle cx="398" cy="51" r="2.4"/> <circle cx="478" cy="50" r="2.6"/>
                <circle cx="58"  cy="79" r="2.8"/> <circle cx="138" cy="77" r="2.4"/>
                <circle cx="218" cy="81" r="3.0"/> <circle cx="298" cy="78" r="2.6"/>
                <circle cx="378" cy="81" r="2.8"/> <circle cx="458" cy="77" r="2.4"/>
            </g>
        </g>
    </g>

    <!-- ── FOG ── -->
    <g data-cb-weather-background-weather="fog" clip-path="url(#scene-clip)">
        <rect x="0" y="0" width="520" height="180" fill="#8090a0" opacity="0.28"/>
        <!-- fog layer A: moves right -->
        <g class="fog-a">
            <rect x="-60" y="14"  width="640" height="18" rx="9"  fill="#8899aa" opacity="0.52"/>
            <rect x="-60" y="50"  width="640" height="20" rx="10" fill="#8899aa" opacity="0.45"/>
            <rect x="-60" y="86"  width="640" height="16" rx="8"  fill="#8899aa" opacity="0.40"/>
            <rect x="-60" y="118" width="640" height="24" rx="12" fill="#9aaabb" opacity="0.50"/>
        </g>
        <!-- fog layer B: moves left, offset -->
        <g class="fog-b">
            <rect x="-60" y="32"  width="640" height="14" rx="7"  fill="#aabbcc" opacity="0.42"/>
            <rect x="-60" y="68"  width="640" height="16" rx="8"  fill="#aabbcc" opacity="0.36"/>
            <rect x="-60" y="100" width="640" height="18" rx="9"  fill="#9aaabb" opacity="0.38"/>
            <rect x="-60" y="132" width="640" height="22" rx="11" fill="#aabbcc" opacity="0.48"/>
        </g>
    </g>

    <!-- ── WINDY ── -->
    <g data-cb-weather-background-weather="windy" clip-path="url(#scene-clip)">
        <!-- stroke A -->
        <g class="wind-stroke" fill="none" stroke="#7a9ab8" stroke-linecap="round">
            <path d="M-10,22  Q80,14  200,22  Q320,30  440,22  Q490,18 530,22"   stroke-width="1.8"/>
            <path d="M-10,50  Q90,42  210,50  Q330,58  450,50  Q495,46 530,50"   stroke-width="1.6"/>
            <path d="M-10,78  Q85,70  205,78  Q325,86  445,78  Q495,74 530,78"   stroke-width="1.5"/>
            <path d="M-10,106 Q90,98  210,106 Q330,114 450,106 Q498,102 530,106" stroke-width="1.1"/>
            <path d="M20,16   Q70,12  130,16"  stroke-width="1.0"/>
            <path d="M260,30  Q330,26 400,30"  stroke-width="1.0"/>
        </g>
        <!-- stroke B (offset timing) -->
        <g class="wind-stroke-b" fill="none" stroke="#7a9ab8" stroke-linecap="round">
            <path d="M-10,36  Q70,28  180,36  Q310,44  430,36  Q480,32 530,36"   stroke-width="1.4"/>
            <path d="M-10,64  Q75,56  195,64  Q315,72  435,64  Q490,60 530,64"   stroke-width="1.2"/>
            <path d="M-10,92  Q80,84  200,92  Q320,100 440,92  Q492,88 530,92"   stroke-width="1.3"/>
            <path d="M380,44  Q450,40 520,44"  stroke-width="1.0"/>
            <path d="M0,54    Q50,50  100,54"  stroke-width="0.9"/>
        </g>
    </g>

    <!-- ── WINDY-VARIANT ── -->
    <g data-cb-weather-background-weather="windy-variant" clip-path="url(#scene-clip)">
        <g class="wind-stroke-fast" fill="none" stroke="#6a8aaa" stroke-linecap="round">
            <path d="M-10,18  Q80,8   200,18  Q320,28  440,18  Q490,14 530,18"   stroke-width="2.2"/>
            <path d="M-10,46  Q90,36  210,46  Q330,56  450,46  Q495,42 530,46"   stroke-width="2.0"/>
            <path d="M-10,74  Q85,64  205,74  Q325,84  445,74  Q495,70 530,74"   stroke-width="1.8"/>
            <path d="M-10,102 Q90,92  210,102 Q330,112 450,102 Q498,98 530,102"  stroke-width="1.4"/>
            <path d="M-10,116 Q78,106 198,116 Q318,126 438,116 Q492,112 530,116" stroke-width="1.7"/>
            <path d="M0,24    Q50,18  120,24"  stroke-width="1.4"/>
            <path d="M180,38  Q260,32 360,38"  stroke-width="1.3"/>
            <path d="M400,52  Q460,46 530,52"  stroke-width="1.2"/>
        </g>
        <g class="wind-stroke-b" fill="none" stroke="#6a8aaa" stroke-linecap="round">
            <path d="M-10,32  Q70,22  180,32  Q310,42  430,32  Q480,28 530,32"   stroke-width="1.8"/>
            <path d="M-10,60  Q75,50  195,60  Q315,70  435,60  Q490,56 530,60"   stroke-width="1.5"/>
            <path d="M-10,88  Q80,78  200,88  Q320,98  440,88  Q492,84 530,88"   stroke-width="1.6"/>
            <path d="M10,66   Q80,60  160,66"  stroke-width="1.3"/>
            <path d="M240,78  Q320,72 420,78"  stroke-width="1.2"/>
        </g>
    </g>

    <!-- ── EXCEPTIONAL ── -->
    <g data-cb-weather-background-weather="exceptional" clip-path="url(#scene-clip)">
        <rect x="0" y="0" width="520" height="135" fill="#2a1840" opacity="0.40"/>
        <ellipse cx="260" cy="60"  rx="280" ry="80" fill="#6030a0" filter="url(#blur-md)" opacity="0.22"/>
        <ellipse cx="260" cy="140" rx="300" ry="60" fill="#c04820" filter="url(#blur-md)" opacity="0.18"/>
        <!-- warning wave strokes -->
        <g class="exc-wave" fill="none" stroke="#c060d0" stroke-linecap="round">
            <path d="M-10,30 Q80,20 200,30 Q320,40 440,30 Q490,26 540,30" stroke-width="2.0"/>
            <path d="M-10,55 Q80,45 200,55 Q320,65 440,55 Q490,51 540,55" stroke-width="1.6"/>
            <path d="M-10,80 Q80,70 200,80 Q320,90 440,80 Q490,76 540,80" stroke-width="1.8"/>
        </g>
        <g class="exc-wave" fill="none" stroke="#e07030" stroke-linecap="round"
           style="animation-delay:-1.5s">
            <path d="M-10,42 Q80,32 200,42 Q320,52 440,42 Q490,38 540,42" stroke-width="1.4"/>
            <path d="M-10,68 Q80,58 200,68 Q320,78 440,68 Q490,64 540,68" stroke-width="1.6"/>
        </g>
    </g>

    <!-- ══════════════════════════════════════════
         STATIC SCENE — ground
         ══════════════════════════════════════════ -->

    <rect x="0" y="135" width="520" height="46" fill="url(#ground-grad)"/>

</svg>
